<svg width="771" height="933" viewBox="0 0 771 933" fill="none" xmlns="http://www.w3.org/2000/svg">
<path fill-rule="evenodd" clip-rule="evenodd" d="M635.513 2.84693C628.302 3.90595 604.7 7.28747 583.066 10.3544C310.275 49.0768 98.2758 215.411 25.599 447.745C-23.8697 605.89 -0.210516 787.297 84.1936 897.079C108.325 928.467 107.014 928.965 118.279 884.198C158.832 723.059 240.923 530.863 324.776 400.734C374.691 323.274 459.515 222.62 495.688 197.937C506.686 190.43 501.546 197.911 480.399 220.198C331.065 377.541 221.218 610.3 171.703 874.289C159.325 940.294 153.073 934.48 232.977 931.261C438.787 922.972 581.204 802.8 638.471 589.114C651.274 541.353 652.826 524.729 656.576 395.319C662.157 202.682 686.954 114.568 762.447 19.1569C778.003 -0.503135 778.003 -0.503127 713.314 0.209877C677.734 0.603077 642.725 1.79315 635.513 2.84693Z" fill="black"/>
</svg>
