<svg width="730" height="921" viewBox="0 0 730 921" fill="none" xmlns="http://www.w3.org/2000/svg">
<path fill-rule="evenodd" clip-rule="evenodd" d="M291.294 11.4738C209.785 40.3743 155.948 119.994 155.818 211.827C155.742 267.762 155.742 267.762 127.978 281.917C32.5453 330.587 -22.2554 462.142 8.63739 568.383C44.7632 692.596 141.343 761.08 271.135 754.511C334.251 751.322 334.251 751.322 334.251 833.909C334.251 916.495 334.251 916.496 186.979 918.744C105.975 919.983 179.137 921 349.552 921C519.968 921 593.13 919.983 512.126 918.744C364.853 916.496 364.853 916.495 364.853 836.356C364.853 792.283 365.71 756.277 366.766 756.339C367.822 756.4 382.45 761.417 399.281 767.474C508.989 806.981 649.889 748.049 707.605 638.511C736.799 583.081 737.579 473.575 709.188 415.904C685.265 367.296 633.892 315.743 590.085 296.371C558.771 282.529 556.476 279.638 561.694 260.657C604.575 104.76 444.434 -42.8168 291.294 11.4738ZM440.372 44.4887C526.104 88.2103 549.881 149.751 531.857 281.298C529.722 296.823 534.251 301.296 561.288 310.42C633.861 334.915 699.656 421.877 707.015 503.033C721.926 667.381 559.819 796.993 406.931 742.971C346.622 721.664 348.849 700.037 418.583 629.862C452.888 595.341 470.301 572.558 464.922 569.232C456.025 563.741 380.154 622.222 380.154 634.573C380.154 638.389 376.712 641.509 372.504 641.509C367.684 641.509 364.808 589.811 364.739 501.94C364.67 425.181 361.617 357.629 357.937 351.832C342.889 328.071 334.251 353.606 334.251 421.854C334.251 491.899 334.251 491.899 290.039 448.169C265.726 424.11 243.348 404.433 240.311 404.433C224.176 404.433 240.158 429.303 284.523 473.261C334.251 522.527 334.251 522.527 334.251 620.494C334.251 734.665 338.176 729.602 250.096 729.189C15.9743 728.104 -62.2906 413.709 143.761 302.015C186.612 278.789 186.612 278.789 182.978 227.978C172.359 79.5913 312.838 -20.5468 440.372 44.4887Z" fill="black"/>
</svg>
